<mxfile host="app.diagrams.net" modified="2021-08-24T03:25:21.101Z" agent="5.0 (Macintosh; Intel Mac OS X 10_15_7) AppleWebKit/537.36 (KHTML, like Gecko) Chrome/86.0.4240.193 Safari/537.36" etag="q1JvJ19SSTz5Ls-sNmfm" version="14.9.8" type="github">
  <diagram id="A6RGTPvi_iQcMVTrqWcZ" name="Page-1">
    <mxGraphModel dx="946" dy="536" grid="1" gridSize="10" guides="1" tooltips="1" connect="1" arrows="1" fold="1" page="1" pageScale="1" pageWidth="827" pageHeight="1169" math="0" shadow="0">
      <root>
        <mxCell id="0" />
        <mxCell id="1" parent="0" />
        <mxCell id="gErB0KF34t4hKVYotVow-11" style="rounded=0;orthogonalLoop=1;jettySize=auto;html=1;exitX=0;exitY=0.5;exitDx=0;exitDy=0;entryX=0.743;entryY=0.043;entryDx=0;entryDy=0;entryPerimeter=0;startArrow=classic;startFill=1;fillColor=#dae8fc;strokeColor=#6c8ebf;" edge="1" parent="1" source="gErB0KF34t4hKVYotVow-3" target="gErB0KF34t4hKVYotVow-4">
          <mxGeometry relative="1" as="geometry" />
        </mxCell>
        <mxCell id="gErB0KF34t4hKVYotVow-12" style="edgeStyle=none;rounded=0;orthogonalLoop=1;jettySize=auto;html=1;exitX=1;exitY=0.5;exitDx=0;exitDy=0;entryX=0.414;entryY=0.014;entryDx=0;entryDy=0;entryPerimeter=0;startArrow=classic;startFill=1;fillColor=#dae8fc;strokeColor=#6c8ebf;" edge="1" parent="1" source="gErB0KF34t4hKVYotVow-3" target="gErB0KF34t4hKVYotVow-5">
          <mxGeometry relative="1" as="geometry" />
        </mxCell>
        <mxCell id="gErB0KF34t4hKVYotVow-3" value="6， 0， 0" style="ellipse;whiteSpace=wrap;html=1;aspect=fixed;fillColor=#dae8fc;strokeColor=#6c8ebf;" vertex="1" parent="1">
          <mxGeometry x="230" y="240" width="70" height="70" as="geometry" />
        </mxCell>
        <mxCell id="gErB0KF34t4hKVYotVow-13" style="edgeStyle=none;rounded=0;orthogonalLoop=1;jettySize=auto;html=1;exitX=0;exitY=1;exitDx=0;exitDy=0;entryX=0.7;entryY=0.043;entryDx=0;entryDy=0;entryPerimeter=0;startArrow=classic;startFill=1;fillColor=#dae8fc;strokeColor=#6c8ebf;" edge="1" parent="1" source="gErB0KF34t4hKVYotVow-4" target="gErB0KF34t4hKVYotVow-6">
          <mxGeometry relative="1" as="geometry" />
        </mxCell>
        <mxCell id="gErB0KF34t4hKVYotVow-14" style="edgeStyle=none;rounded=0;orthogonalLoop=1;jettySize=auto;html=1;exitX=1;exitY=1;exitDx=0;exitDy=0;entryX=0.5;entryY=0;entryDx=0;entryDy=0;startArrow=classic;startFill=1;fillColor=#dae8fc;strokeColor=#6c8ebf;" edge="1" parent="1" source="gErB0KF34t4hKVYotVow-4" target="gErB0KF34t4hKVYotVow-7">
          <mxGeometry relative="1" as="geometry" />
        </mxCell>
        <mxCell id="gErB0KF34t4hKVYotVow-4" value="3， 3， 0" style="ellipse;whiteSpace=wrap;html=1;aspect=fixed;fillColor=#dae8fc;strokeColor=#6c8ebf;" vertex="1" parent="1">
          <mxGeometry x="130" y="330" width="70" height="70" as="geometry" />
        </mxCell>
        <mxCell id="gErB0KF34t4hKVYotVow-15" style="edgeStyle=none;rounded=0;orthogonalLoop=1;jettySize=auto;html=1;exitX=0;exitY=1;exitDx=0;exitDy=0;entryX=0.5;entryY=0;entryDx=0;entryDy=0;endArrow=none;endFill=0;startArrow=classic;startFill=1;fillColor=#dae8fc;strokeColor=#6c8ebf;" edge="1" parent="1" source="gErB0KF34t4hKVYotVow-5" target="gErB0KF34t4hKVYotVow-7">
          <mxGeometry relative="1" as="geometry" />
        </mxCell>
        <mxCell id="gErB0KF34t4hKVYotVow-16" style="edgeStyle=none;rounded=0;orthogonalLoop=1;jettySize=auto;html=1;exitX=1;exitY=1;exitDx=0;exitDy=0;entryX=0.371;entryY=0.029;entryDx=0;entryDy=0;entryPerimeter=0;fillColor=#dae8fc;strokeColor=#6c8ebf;" edge="1" parent="1" source="gErB0KF34t4hKVYotVow-5" target="gErB0KF34t4hKVYotVow-8">
          <mxGeometry relative="1" as="geometry" />
        </mxCell>
        <mxCell id="gErB0KF34t4hKVYotVow-5" value="5， 0， 1" style="ellipse;whiteSpace=wrap;html=1;aspect=fixed;fillColor=#dae8fc;strokeColor=#6c8ebf;" vertex="1" parent="1">
          <mxGeometry x="340" y="330" width="70" height="70" as="geometry" />
        </mxCell>
        <mxCell id="gErB0KF34t4hKVYotVow-17" style="edgeStyle=none;rounded=0;orthogonalLoop=1;jettySize=auto;html=1;exitX=0.5;exitY=1;exitDx=0;exitDy=0;entryX=0.043;entryY=0.286;entryDx=0;entryDy=0;entryPerimeter=0;startArrow=classic;startFill=1;endArrow=none;endFill=0;fillColor=#dae8fc;strokeColor=#6c8ebf;" edge="1" parent="1" source="gErB0KF34t4hKVYotVow-6" target="gErB0KF34t4hKVYotVow-10">
          <mxGeometry relative="1" as="geometry" />
        </mxCell>
        <mxCell id="gErB0KF34t4hKVYotVow-19" style="edgeStyle=none;rounded=0;orthogonalLoop=1;jettySize=auto;html=1;exitX=1;exitY=0.5;exitDx=0;exitDy=0;entryX=0;entryY=1;entryDx=0;entryDy=0;startArrow=classic;startFill=1;endArrow=classic;endFill=1;fillColor=#dae8fc;strokeColor=#6c8ebf;" edge="1" parent="1" source="gErB0KF34t4hKVYotVow-6" target="gErB0KF34t4hKVYotVow-5">
          <mxGeometry relative="1" as="geometry" />
        </mxCell>
        <mxCell id="gErB0KF34t4hKVYotVow-6" value="2， 3， 1" style="ellipse;whiteSpace=wrap;html=1;aspect=fixed;fillColor=#dae8fc;strokeColor=#6c8ebf;" vertex="1" parent="1">
          <mxGeometry x="60" y="430" width="70" height="70" as="geometry" />
        </mxCell>
        <mxCell id="gErB0KF34t4hKVYotVow-20" style="edgeStyle=none;rounded=0;orthogonalLoop=1;jettySize=auto;html=1;exitX=1;exitY=1;exitDx=0;exitDy=0;entryX=0;entryY=0;entryDx=0;entryDy=0;startArrow=classic;startFill=1;endArrow=classic;endFill=1;fillColor=#dae8fc;strokeColor=#6c8ebf;" edge="1" parent="1" source="gErB0KF34t4hKVYotVow-7" target="gErB0KF34t4hKVYotVow-9">
          <mxGeometry relative="1" as="geometry" />
        </mxCell>
        <mxCell id="gErB0KF34t4hKVYotVow-24" style="edgeStyle=none;rounded=0;orthogonalLoop=1;jettySize=auto;html=1;exitX=0;exitY=0.5;exitDx=0;exitDy=0;startArrow=none;startFill=0;endArrow=classic;endFill=1;fillColor=#dae8fc;strokeColor=#6c8ebf;" edge="1" parent="1" source="gErB0KF34t4hKVYotVow-7">
          <mxGeometry relative="1" as="geometry">
            <mxPoint x="130" y="478" as="targetPoint" />
          </mxGeometry>
        </mxCell>
        <mxCell id="gErB0KF34t4hKVYotVow-7" value="3， 2， 1" style="ellipse;whiteSpace=wrap;html=1;aspect=fixed;fillColor=#dae8fc;strokeColor=#6c8ebf;" vertex="1" parent="1">
          <mxGeometry x="200" y="450" width="70" height="70" as="geometry" />
        </mxCell>
        <mxCell id="gErB0KF34t4hKVYotVow-8" value="5， 1， 0" style="ellipse;whiteSpace=wrap;html=1;aspect=fixed;fillColor=#dae8fc;strokeColor=#6c8ebf;" vertex="1" parent="1">
          <mxGeometry x="430" y="430" width="70" height="70" as="geometry" />
        </mxCell>
        <mxCell id="gErB0KF34t4hKVYotVow-21" style="edgeStyle=none;rounded=0;orthogonalLoop=1;jettySize=auto;html=1;exitX=0.5;exitY=1;exitDx=0;exitDy=0;entryX=0.5;entryY=0;entryDx=0;entryDy=0;startArrow=classic;startFill=1;endArrow=classic;endFill=1;fillColor=#dae8fc;strokeColor=#6c8ebf;" edge="1" parent="1" source="gErB0KF34t4hKVYotVow-9" target="gErB0KF34t4hKVYotVow-10">
          <mxGeometry relative="1" as="geometry" />
        </mxCell>
        <mxCell id="gErB0KF34t4hKVYotVow-9" value="4， 2， 0" style="ellipse;whiteSpace=wrap;html=1;aspect=fixed;fillColor=#dae8fc;strokeColor=#6c8ebf;" vertex="1" parent="1">
          <mxGeometry x="280" y="540" width="70" height="70" as="geometry" />
        </mxCell>
        <mxCell id="gErB0KF34t4hKVYotVow-22" style="edgeStyle=none;rounded=0;orthogonalLoop=1;jettySize=auto;html=1;exitX=1;exitY=0.5;exitDx=0;exitDy=0;entryX=0.5;entryY=1;entryDx=0;entryDy=0;startArrow=none;startFill=0;endArrow=classic;endFill=1;fillColor=#dae8fc;strokeColor=#6c8ebf;" edge="1" parent="1" source="gErB0KF34t4hKVYotVow-10" target="gErB0KF34t4hKVYotVow-5">
          <mxGeometry relative="1" as="geometry" />
        </mxCell>
        <mxCell id="gErB0KF34t4hKVYotVow-23" style="edgeStyle=none;rounded=0;orthogonalLoop=1;jettySize=auto;html=1;exitX=1;exitY=0.5;exitDx=0;exitDy=0;entryX=0.5;entryY=1;entryDx=0;entryDy=0;startArrow=none;startFill=0;endArrow=classic;endFill=1;fillColor=#dae8fc;strokeColor=#6c8ebf;" edge="1" parent="1" source="gErB0KF34t4hKVYotVow-10" target="gErB0KF34t4hKVYotVow-8">
          <mxGeometry relative="1" as="geometry" />
        </mxCell>
        <mxCell id="gErB0KF34t4hKVYotVow-10" value="4， 1， 1" style="ellipse;whiteSpace=wrap;html=1;aspect=fixed;fillColor=#dae8fc;strokeColor=#6c8ebf;" vertex="1" parent="1">
          <mxGeometry x="300" y="650" width="70" height="70" as="geometry" />
        </mxCell>
      </root>
    </mxGraphModel>
  </diagram>
</mxfile>
